<svg xmlns="http://www.w3.org/2000/svg" width="13" height="13" viewBox="0 0 413 413">
    <g transform="translate(0,345) scale(0.1,-0.1)" fill="#AFB1B3">
        <path d="M720 2647 c0 -13 4 -27 9 -32 16 -18 311 -612 311 -628 0 -10 -16 -17 -57 -22 -222 -28 -471 -184 -605 -381 -113 -166 -158 -313 -158 -519 0 -197 44 -349 145 -501 129 -193 302 -318 545 -391 49 -14 147 -17 864 -20 529 -3 812 -1 819 6 6 6 -35 98 -123 273 -73 145 -137 268 -142 275 -7 9 -164 13 -646 15 l-637 3 -56 28 c-112 55 -177 138 -199 254 -25 137 60 303 185 362 80 38 123 41 559 41 234 0 427 4 430 9 5 8 -593 1209 -616 1239 -8 9 -84 12 -319 12 l-309 0 0 -23z"/>
        <path d="M1590 2658 c1 -7 63 -134 138 -283 l137 -270 640 -5 640 -5 55 -26 c81 -39 132 -88 170 -165 29 -60 33 -77 33 -148 -1 -150 -77 -260 -223 -321 -41 -18 -81 -19 -502 -23 -252 -2 -458 -5 -458 -8 0 -19 624 -1243 636 -1248 25 -10 612 -7 618 3 3 4 -69 156 -160 336 -90 181 -163 334 -160 340 2 6 35 17 72 24 180 34 357 126 483 252 44 45 131 153 131 163 0 4 11 23 23 44 34 52 73 154 93 242 33 136 19 382 -27 497 -61 150 -154 291 -247 374 -62 55 -163 121 -243 158 -177 81 -175 81 -1071 81 -616 0 -778 -3 -778 -12z"/>
    </g>
</svg>